<svg width="57" height="63" viewBox="0 0 57 63" fill="none" xmlns="http://www.w3.org/2000/svg">
<path d="M56.2796 16.4932H43.7223V62.7354H56.2796V16.4932Z" fill="black"/>
<path d="M0 16.4932V62.7354H12.5574V16.4932H0Z" fill="black"/>
<path d="M31.4925 16.4932L12.5571 62.7354H25.5029L43.7132 16.4932H38.7162H31.4925Z" fill="black"/>
<path d="M49.9966 0.000297375C48.7829 0.0241009 47.6033 0.405856 46.6058 1.09765C45.6083 1.78945 44.8373 2.76047 44.3896 3.88884C43.9419 5.01722 43.8375 6.25268 44.0895 7.44018C44.3414 8.62769 44.9385 9.71433 45.8057 10.5637C46.673 11.4131 47.7719 11.9874 48.9643 12.2146C50.1568 12.4418 51.3898 12.3117 52.5087 11.8406C53.6275 11.3696 54.5822 10.5785 55.2531 9.56681C55.924 8.5551 56.2811 7.36779 56.2797 6.15385C56.2614 4.505 55.5895 2.93078 54.4114 1.77699C53.2334 0.623205 51.6455 -0.0158125 49.9966 0.000297375Z" fill="black"/>
</svg>
