<svg width="206" height="57" viewBox="0 0 206 57" fill="none" xmlns="http://www.w3.org/2000/svg">
<path d="M205.994 35.3488C205.967 27.2066 202.609 21.1337 195.995 17.293C192.45 15.2389 188.431 14.326 184.384 14.3456C180.335 14.3173 176.316 15.2302 172.775 17.2843C166.156 21.125 162.8 27.1979 162.776 35.3401C162.803 43.4823 166.159 49.5574 172.775 53.3981C176.213 55.3913 180.115 56.3259 184.077 56.3477H184.388C184.49 56.3477 184.606 56.3477 184.699 56.3477C188.657 56.3259 192.559 55.3913 196.002 53.3981C202.62 49.5574 205.976 43.4823 206 35.3401L205.994 35.3488ZM192.148 43.391C190.233 45.3472 187.583 46.3688 184.458 46.3731H184.319C181.202 46.3731 178.544 45.3385 176.629 43.391C174.714 41.4435 173.649 38.5744 173.662 35.3488C173.675 32.1232 174.696 29.2737 176.631 27.3066C178.565 25.3395 181.195 24.3266 184.319 24.3245H184.469C187.586 24.3245 190.244 25.3591 192.157 27.3066C194.069 29.2541 195.139 32.1254 195.126 35.3488C195.113 38.5722 194.08 41.4239 192.144 43.3932L192.148 43.391Z" fill="black"/>
<path d="M53.9089 14.8042V24.7896H69.1065V55.989H80.2308V24.7896H95.7066V14.8042H53.9089Z" fill="black"/>
<path d="M50.3181 14.7194H39.0917V55.9889H50.3181V14.7194Z" fill="black"/>
<path d="M11.2265 14.7194H0V55.9889H11.2265V14.7194Z" fill="black"/>
<path d="M28.1542 14.7194L11.2265 55.9889H22.7985L39.0807 14.7194H28.1542Z" fill="black"/>
<path d="M140.762 14.7194L129.621 41.8803L118.479 14.7194H99.2973V55.9889H110.524V22.2486L123.835 55.9889H135.407L148.718 22.2486V55.9889H159.944V14.7194H140.762Z" fill="black"/>
<path d="M44.6994 0C41.5955 0 39.0807 2.46265 39.0807 5.49696C39.0807 8.53126 41.5955 10.9939 44.6994 10.9939C47.8033 10.9939 50.3181 8.53343 50.3181 5.49696C50.3181 2.46048 47.8011 0 44.6994 0Z" fill="black"/>
</svg>
